<?xml version="1.0" standalone="no"?>
<!DOCTYPE svg PUBLIC "-//W3C//DTD SVG 1.1//EN" "http://www.w3.org/Graphics/SVG/1.1/DTD/svg11.dtd">
<svg xmlns="http://www.w3.org/2000/svg">
<defs >
<font id="Livvic" horiz-adv-x="590" ><font-face
    font-family="Livvic"
    units-per-em="1000"
    panose-1="0 0 0 0 0 0 0 0 0 0"
    ascent="1005"
    descent="-250"
    alphabetic="0" />
<glyph unicode=" " glyph-name="space" horiz-adv-x="252" />
<glyph unicode="!" glyph-name="exclam" horiz-adv-x="274" d="M81 240L142 740H316L187 240H81ZM106 -10Q63 -10 36 16T9 83Q9 123 36 149T106 175Q149 175 176 149T203 83Q203 42 176 16T106 -10Z" />
<glyph unicode="&quot;" glyph-name="quotedbl" horiz-adv-x="489" d="M104 357L134 710H297L204 357H104ZM322 357L352 710H515L422 357H322Z" />
<glyph unicode="#" glyph-name="numbersign" horiz-adv-x="600" d="M7 0L77 183H-6L40 300H122L164 409H82L128 526H208L279 710H411L340 526H426L497 710H629L558 526H641L595 409H513L472 300H554L508 183H427L357 0H225L295 183H209L139 0H7ZM254 300H340L382
409H295L254 300Z" />
<glyph unicode="$" glyph-name="dollar" horiz-adv-x="600" d="M180 -120L200 -4Q112 11 62 66T18 212L173 234Q171 182 201 155T291 127Q341 127 370 148T400 204Q400 230 378 245T321 271T247 294T174 328T117 384T94 476Q94 541 124 591T207 674T328 716L348
830H454L433 716Q509 703 556 652T601 522L452 498Q452 539 427 561T363 584Q318 584 290 560T262 501Q262 471 284 455T341 427T415 404T489 373T546 321T568 234Q568 163 534 112T440 30T305 -7L286 -120H180Z" />
<glyph unicode="%" glyph-name="percent" horiz-adv-x="833" d="M254 383Q175 383 127 427T79 545Q79 596 103 635T170 698T268 721Q348 721 396 678T444 559Q444 508 420 468T353 406T254 383ZM49 0L679 710H819L188 0H49ZM259 477Q294 477 315 499T337 558Q337
590 318 608T266 627Q229 627 208 605T187 546Q187 513 206 495T259 477ZM602 -8Q522 -8 474 36T425 154Q425 205 449 245T517 307T615 330Q695 330 742 286T790 168Q790 117 766 78T699 15T602 -8ZM605 86Q640 86 661 108T683 169Q683 201 664 218T611 236Q575
236 554 214T532 155Q532 122 551 104T605 86Z" />
<glyph unicode="&amp;" glyph-name="ampersand" horiz-adv-x="836" d="M287 -8Q213 -8 156 15T67 82T35 186Q35 241 55 281T108 350T181 400Q162 426 152 452T142 509Q142 572 173 619T258 692T380 718Q459 718 507 681T556 581Q556 525 532 489T468 429T386 386L534
214Q570 258 591 315H511L533 441H823L801 315H722Q687 210 618 134Q649 117 690 117Q726 117 759 135L777 25Q723 -10 646 -10Q598 -10 561 2T493 39Q447 16 396 4T287 -8ZM289 533Q289 518 296 503T321 464Q365 485 394 507T424 564Q424 587 409 596T370 606Q334
606 312 586T289 533ZM195 213Q195 168 231 142T332 116Q372 116 410 128L250 317Q225 299 210 274T195 213Z" />
<glyph unicode="&apos;" glyph-name="quotesingle" horiz-adv-x="271" d="M104 357L134 710H297L204 357H104Z" />
<glyph unicode="(" glyph-name="parenleft" horiz-adv-x="354" d="M236 -216Q42 -73 42 169Q42 293 86 404T210 604T398 751L448 676Q320 578 258 442T196 147Q196 52 224 -18T303 -145L236 -216Z" />
<glyph unicode=")" glyph-name="parenright" horiz-adv-x="354" d="M-39 -216L-90 -140Q38 -43 100 93T163 389Q163 484 135 554T55 680L123 751Q316 609 316 367Q316 243 272 132T148 -68T-39 -216Z" />
<glyph unicode="*" glyph-name="asterisk" horiz-adv-x="455" d="M441 500Q467 486 474 463T469 417Q456 395 433 390T382 400Q364 411 350 430T304 480Q313 437 323 415T334 371Q334 342 318 324T276 306Q250 306 234 324T218 372Q218 393 228 415T248 480Q216
450 202 430T170 400Q144 385 121 390T84 417Q71 439 78 462T112 500Q130 511 154 513T220 528Q178 541 154 543T112 556Q85 571 78 594T84 639Q97 662 120 666T170 657Q188 646 202 626T248 577Q239 620 229 642T218 685Q218 714 234 732T276 750Q302 750 318
732T334 685Q334 663 324 642T304 576Q336 606 350 626T382 657Q409 671 432 666T469 639Q482 617 475 594T441 556Q422 545 398 543T332 528Q374 515 398 513T441 500Z" />
<glyph unicode="+" glyph-name="plus" horiz-adv-x="600" d="M181 0L214 185H34L59 324H239L271 509H418L386 324H566L541 185H361L328 0H181Z" />
<glyph unicode="," glyph-name="comma" horiz-adv-x="275" d="M-41 -176Q20 -75 20 -14Q20 12 14 32T8 79Q8 134 41 162T122 191Q164 191 188 169T212 99Q212 69 196 32T153 -43T96 -116T36 -176H-41Z" />
<glyph unicode="-" glyph-name="hyphen" horiz-adv-x="436" d="M48 189L73 325H388L364 189H48Z" />
<glyph unicode="." glyph-name="period" horiz-adv-x="275" d="M108 -10Q60 -10 32 19T4 91Q4 134 32 163T108 192Q156 192 184 163T213 91Q213 48 185 19T108 -10Z" />
<glyph unicode="/" glyph-name="slash" horiz-adv-x="386" d="M-80 -200L332 740H479L67 -200H-80Z" />
<glyph unicode="0" glyph-name="zero" horiz-adv-x="600" d="M261 -10Q158 -11 99 49T40 237Q40 328 63 414T130 570T238 679T385 720Q485 720 540 658T596 474Q596 384 574 298T509 143T404 32T261 -10ZM280 128Q313 128 338 151T383 212T414 296T432 389T438
475Q438 583 365 583Q323 583 292 550T240 465T209 354T198 242Q198 128 280 128Z" />
<glyph unicode="1" glyph-name="one" horiz-adv-x="600" d="M49 0L71 127H231L295 488L183 418L119 537L403 710H493L390 127H538L516 0H49Z" />
<glyph unicode="2" glyph-name="two" horiz-adv-x="600" d="M19 0L38 107Q104 149 170 199T290 303T378 410T411 510Q411 542 392 561T335 581Q290 581 254 554T196 481L87 543Q127 627 201 673T369 720Q462 720 517 673T573 541Q573 461 529 387T410 248T247
127H520L498 0H19Z" />
<glyph unicode="3" glyph-name="three" horiz-adv-x="600" d="M213 -10Q164 -10 109 2T15 36L77 173Q110 153 150 141T237 129Q316 129 346 157T377 226Q377 296 264 296H219L241 422H289Q345 422 379 448T414 517Q414 547 395 564T338 581Q290 581 254 554T195
481L86 543Q126 627 200 673T369 720Q461 720 518 677T575 553Q575 487 539 437T445 361Q535 327 535 231Q535 152 491 99T374 18T213 -10Z" />
<glyph unicode="4" glyph-name="four" horiz-adv-x="600" d="M292 0L321 167H14L34 276L460 712H571L496 292H596L574 167H474L445 0H292ZM203 292H343L374 468L203 292Z" />
<glyph unicode="5" glyph-name="five" horiz-adv-x="600" d="M216 -10Q165 -10 109 2T15 36L77 173Q110 153 150 141T237 129Q306 129 343 156T381 235Q381 274 349 296T231 322L109 327L208 710H586L564 583H329L295 452Q411 446 475 399T539 258Q539 172 496
112T379 21T216 -10Z" />
<glyph unicode="6" glyph-name="six" horiz-adv-x="600" d="M297 -10Q183 -10 119 56T55 253Q55 280 57 308T65 368Q86 483 137 561T262 680T421 720Q502 720 557 681T635 565L504 506Q492 544 469 562T403 581Q343 581 296 535T229 393Q294 452 386 452Q437 452
480 432T550 370T576 263Q576 183 539 121T439 25T297 -10ZM302 118Q352 118 385 151T418 242Q418 280 396 302T334 324Q277 324 244 289T211 204Q211 165 235 142T302 118Z" />
<glyph unicode="7" glyph-name="seven" horiz-adv-x="600" d="M224 0H51L436 583H123L145 710H629L607 584L224 0Z" />
<glyph unicode="8" glyph-name="eight" horiz-adv-x="600" d="M264 -10Q149 -10 83 37T16 167Q16 240 61 291T174 363Q134 382 113 416T91 496Q91 564 130 614T234 692T372 720Q438 720 489 698T571 637T601 544Q601 478 564 431T464 362Q509 343 535 305T562
216Q562 143 522 93T414 16T264 -10ZM330 420Q377 420 409 448T442 522Q442 554 420 573T360 592Q312 592 280 564T247 489Q247 457 269 439T330 420ZM275 118Q331 118 368 144T406 222Q406 257 380 277T306 298Q248 298 212 268T176 191Q176 157 202 138T275 118Z"
/>
<glyph unicode="9" glyph-name="nine" horiz-adv-x="600" d="M339 722Q453 722 517 656T581 459Q581 432 579 404T571 344Q550 229 499 151T374 32T215 -8Q134 -8 79 31T1 147L132 206Q144 168 167 150T233 131Q293 131 340 177T407 319Q342 260 250 260Q199 260
156 280T86 342T60 449Q60 529 97 591T197 687T339 722ZM334 594Q284 594 251 561T218 470Q218 432 240 410T302 388Q359 388 392 423T425 508Q425 547 401 570T334 594Z" />
<glyph unicode=":" glyph-name="colon" horiz-adv-x="275" d="M108 -10Q60 -10 32 19T4 91Q4 134 32 163T108 192Q156 192 184 163T213 91Q213 48 185 19T108 -10ZM166 316Q118 316 90 345T62 417Q62 460 90 489T166 518Q214 518 242 489T271 417Q271 374 243
345T166 316Z" />
<glyph unicode=";" glyph-name="semicolon" horiz-adv-x="275" d="M-41 -176Q20 -75 20 -14Q20 12 14 32T8 79Q8 134 41 162T122 191Q164 191 188 169T212 99Q212 69 196 32T153 -43T96 -116T36 -176H-41ZM166 316Q118 316 90 345T62 417Q62 460 90 489T166 518Q214
518 242 489T271 417Q271 374 243 345T166 316Z" />
<glyph unicode="&lt;" glyph-name="less" horiz-adv-x="600" d="M54 309L601 521L576 377L236 248L531 120L507 -14L35 198L54 309Z" />
<glyph unicode="=" glyph-name="equal" horiz-adv-x="600" d="M56 311L78 435H585L564 311H56ZM15 75L36 199H544L522 75H15Z" />
<glyph unicode="&gt;" glyph-name="greater" horiz-adv-x="600" d="M545 198L-2 -14L23 130L363 259L68 387L92 521L565 309L545 198Z" />
<glyph unicode="?" glyph-name="question" horiz-adv-x="507" d="M282 237L167 244Q172 318 199 367T281 455Q325 486 340 502T355 536Q355 581 289 581Q244 581 206 555T143 481L36 548Q60 600 104 638T205 698T324 720Q410 720 463 679T516 565Q516 501 480
456T388 369Q354 344 333 324T300 284T282 237ZM208 -10Q165 -10 138 15T110 81Q110 122 136 149T207 176Q250 176 277 150T304 83Q304 42 278 16T208 -10Z" />
<glyph unicode="@" glyph-name="at" horiz-adv-x="1006" d="M467 -212Q340 -212 243 -166T89 -32T33 182Q33 301 73 400T186 572T360 685T580 725Q709 725 799 684T937 565T985 384Q985 319 970 256T924 141T849 59T746 28Q692 28 657 50T611 114Q549 28 446 28Q366
28 317 79T268 219Q268 281 289 334T347 429T435 493T546 517Q627 517 680 478L697 508L786 489L738 212Q726 146 772 146Q793 146 809 169T835 228T851 304T857 375Q857 492 785 549T575 606Q455 606 365 554T224 409T173 194Q173 100 210 37T315 -58T471 -91Q529
-91 588 -76T691 -32L739 -140Q684 -175 616 -193T467 -212ZM487 149Q532 149 565 188T613 307L626 376Q600 395 561 395Q520 395 487 373T435 313T416 230Q416 149 487 149Z" />
<glyph unicode="A" glyph-name="A" horiz-adv-x="697" d="M-69 0L365 710H502L672 0H512L481 145H188L103 0H-69ZM268 281H451L402 510L268 281Z" />
<glyph unicode="B" glyph-name="B" horiz-adv-x="647" d="M21 0L146 710H417Q531 710 594 666T658 540Q658 479 628 433T547 360Q580 342 599 309T618 232Q618 160 579 108T474 28T326 0H21ZM398 577H284L257 424H366Q425 424 459 443T493 514Q493 577 398 577ZM206
133H340Q395 133 425 156T456 228Q456 261 432 275T358 290H234L206 133Z" />
<glyph unicode="C" glyph-name="C" horiz-adv-x="680" d="M674 139Q622 64 538 27T359 -10Q264 -10 194 24T85 121T46 272Q46 367 79 449T172 591T310 686T483 720Q578 720 645 684T744 575L605 486Q588 532 549 553T461 575Q391 575 335 538T246 436T213 292Q213
218 256 177T377 135Q427 135 478 158T568 234L674 139Z" />
<glyph unicode="D" glyph-name="D" horiz-adv-x="757" d="M22 0L147 710H370Q552 710 648 634T744 418Q744 325 712 249T621 117T482 31T305 0H22ZM212 145H320Q444 145 511 213T578 400Q578 482 527 523T367 565H285L212 145Z" />
<glyph unicode="E" glyph-name="E" horiz-adv-x="579" d="M208 141H543L508 0H22L147 710H634L609 569H283L258 428H564L539 287H233L208 141Z" />
<glyph unicode="F" glyph-name="F" horiz-adv-x="532" d="M182 0H22L147 710H611L586 569H283L256 418H538L513 278H232L182 0Z" />
<glyph unicode="G" glyph-name="G" horiz-adv-x="768" d="M442 386H744L677 0H547V51Q506 18 458 4T355 -10Q262 -10 193 24T85 122T46 272Q46 367 79 449T173 591T315 686T493 720Q553 720 608 705T706 658T774 577L633 486Q613 527 569 551T471 575Q398 575
340 538T247 436T213 292Q213 218 255 177T377 135Q445 135 497 165T564 253H419L442 386Z" />
<glyph unicode="H" glyph-name="H" horiz-adv-x="758" d="M22 0L147 710H310L261 429H558L607 710H771L646 0H482L533 286H236L185 0H22Z" />
<glyph unicode="I" glyph-name="I" horiz-adv-x="297" d="M22 0L147 710H310L185 0H22Z" />
<glyph unicode="J" glyph-name="J" horiz-adv-x="501" d="M165 -10Q80 -10 25 30T-47 147L97 206Q108 170 127 152T181 134Q213 134 236 156T267 223L353 710H516L434 241Q390 -10 165 -10Z" />
<glyph unicode="K" glyph-name="K" horiz-adv-x="673" d="M22 0L147 710H310L257 406L583 710H784L397 353Q417 341 431 323T456 282L499 183Q511 156 530 145T578 133Q619 133 646 151L666 27Q642 8 606 -1T533 -10Q404 -10 358 94L297 230Q287 254 273 266T235
284L185 0H22Z" />
<glyph unicode="L" glyph-name="L" horiz-adv-x="532" d="M22 0L147 710H310L211 143H517L482 0H22Z" />
<glyph unicode="M" glyph-name="M" horiz-adv-x="946" d="M20 0L170 710H308L461 205L804 710H941L834 0H676L731 360L483 0H365L251 377L171 0H20Z" />
<glyph unicode="N" glyph-name="N" horiz-adv-x="751" d="M607 710H764L639 0H494L258 452L179 0H22L147 710H292L528 258L607 710Z" />
<glyph unicode="O" glyph-name="O" horiz-adv-x="781" d="M353 -10Q260 -10 191 24T84 121T46 272Q46 367 79 449T170 591T307 686T479 720Q567 720 632 685T734 586T770 435Q770 342 738 261T649 119T516 24T353 -10ZM371 135Q437 135 489 172T572 274T603 418Q603
491 564 533T455 575Q386 575 332 538T245 436T213 292Q213 218 254 177T371 135Z" />
<glyph unicode="P" glyph-name="P" horiz-adv-x="640" d="M181 0H22L147 710H399Q525 710 597 662T670 516Q670 424 625 365T501 277T319 248H225L181 0ZM376 577H283L248 383H347Q430 383 468 410T507 497Q507 540 473 558T376 577Z" />
<glyph unicode="Q" glyph-name="Q" horiz-adv-x="781" d="M459 -210Q389 -210 342 -184T274 -111T264 -1Q163 21 105 91T46 272Q46 367 79 449T170 591T307 686T479 720Q567 720 632 685T734 586T770 435Q770 351 744 277T671 145T561 48T423 -4V-5Q409 -81 477
-81Q524 -81 537 -39L666 -55Q643 -135 589 -172T459 -210ZM371 135Q437 135 489 172T572 274T603 418Q603 491 564 533T455 575Q386 575 332 538T245 436T213 292Q213 218 254 177T371 135Z" />
<glyph unicode="R" glyph-name="R" horiz-adv-x="656" d="M637 153L657 27Q632 9 597 0T528 -10Q460 -10 416 16T349 96L289 230Q278 254 264 263T231 274L182 0H22L147 710H370Q505 710 571 663T638 524Q638 426 578 364T421 284Q449 269 466 233L491 181Q503
156 522 145T566 133Q588 133 605 137T637 153ZM340 577H284L253 401H326Q402 401 437 426T473 501Q473 542 440 559T340 577Z" />
<glyph unicode="S" glyph-name="S" horiz-adv-x="599" d="M262 -9Q138 -9 69 48T5 212L161 234Q158 182 189 155T285 127Q342 127 372 148T403 204Q403 230 381 245T325 271T251 294T177 328T120 384T98 476Q98 549 137 604T243 689T393 720Q498 720 560 667T620
522L471 498Q471 539 446 561T378 584Q325 584 296 560T266 501Q266 471 288 455T345 427T419 404T493 373T550 321T572 234Q572 157 531 103T419 20T262 -9Z" />
<glyph unicode="T" glyph-name="T" horiz-adv-x="592" d="M694 710L647 567H433L333 0H169L269 567H44L69 710H694Z" />
<glyph unicode="U" glyph-name="U" horiz-adv-x="759" d="M613 710H774L708 324Q680 161 588 76T348 -10Q246 -10 179 27T83 135T72 301L144 710H308L238 314Q207 135 365 135Q442 135 486 183T549 335L613 710Z" />
<glyph unicode="V" glyph-name="V" horiz-adv-x="655" d="M597 710H767L388 0H157L72 710H238L301 141L597 710Z" />
<glyph unicode="W" glyph-name="W" horiz-adv-x="1014" d="M939 710H1101L770 0H585L558 504L328 0H142L91 710H248L277 220L499 710H692L717 219L939 710Z" />
<glyph unicode="X" glyph-name="X" horiz-adv-x="634" d="M-54 0L245 363L85 710H262L357 501L526 710H707L422 361L590 0H410L310 222L132 0H-54Z" />
<glyph unicode="Y" glyph-name="Y" horiz-adv-x="611" d="M713 710L399 317L343 0H179L235 315L53 710H228L339 461L532 710H713Z" />
<glyph unicode="Z" glyph-name="Z" horiz-adv-x="640" d="M-8 0L13 118L440 567H111L136 710H691L670 592L243 143H602L567 0H-8Z" />
<glyph unicode="[" glyph-name="bracketleft" horiz-adv-x="334" d="M-14 -200L152 740H417L397 625H281L156 -85H271L251 -200H-14Z" />
<glyph unicode="\" glyph-name="backslash" horiz-adv-x="386" d="M306 -200H167L79 740H217L306 -200Z" />
<glyph unicode="]" glyph-name="bracketright" horiz-adv-x="334" d="M-78 -200L-58 -85H59L184 625H68L88 740H353L187 -200H-78Z" />
<glyph unicode="^" glyph-name="asciicircum" horiz-adv-x="600" d="M418 609L540 99H407L336 418L150 99H5L308 609H418Z" />
<glyph unicode="_" glyph-name="underscore" horiz-adv-x="547" d="M-43 -127L-21 0H478L456 -127H-43Z" />
<glyph unicode="`" glyph-name="grave" horiz-adv-x="643" d="M274 573L155 712L322 750L412 573H274Z" />
<glyph unicode="a" glyph-name="a" horiz-adv-x="618" d="M215 -10Q128 -10 78 42T27 186Q27 257 50 317T116 422T216 492T341 517Q431 517 486 472L504 507H608Q601 473 592 426T572 325L545 174Q536 124 532 79T527 0H376Q376 22 379 46T387 93Q322 -10 215
-10ZM267 123Q321 123 360 172T414 307L424 361Q396 386 345 386Q274 386 230 337T186 210Q186 123 267 123Z" />
<glyph unicode="b" glyph-name="b" horiz-adv-x="618" d="M277 -10Q188 -10 133 34L117 0H12Q18 34 27 81T46 182L144 740H297L257 509L236 421Q300 517 403 517Q491 517 541 465T592 320Q592 250 569 190T502 84T402 15T277 -10ZM273 121Q344 121 388 170T433
297Q433 384 351 384Q298 384 259 335T204 200L194 145Q222 121 273 121Z" />
<glyph unicode="c" glyph-name="c" horiz-adv-x="497" d="M255 -10Q148 -10 88 44T27 193Q27 262 51 321T118 424T219 492T345 517Q413 517 460 491T532 410L409 328Q400 357 380 370T328 383Q288 383 256 361T206 299T187 212Q187 123 280 124Q343 124 385 180L477
94Q403 -10 255 -10Z" />
<glyph unicode="d" glyph-name="d" horiz-adv-x="618" d="M215 -10Q128 -10 78 42T27 186Q27 257 50 317T116 422T216 492T341 517Q404 517 449 495L451 509L492 740H645L545 174Q536 124 532 79T527 0H376Q376 22 379 46T387 93Q322 -10 215 -10ZM267 123Q321
123 360 172T414 307L424 361Q396 386 345 386Q274 386 230 337T186 210Q186 123 267 123Z" />
<glyph unicode="e" glyph-name="e" horiz-adv-x="547" d="M266 -10Q194 -10 141 16T58 90T29 203Q29 293 69 364T179 476T338 517Q425 517 477 476T530 366Q530 296 481 254T348 206L181 194Q186 160 216 141T295 121Q328 121 361 133T415 167L481 74Q446 34 392
12T266 -10ZM328 406Q279 406 244 377T195 298L328 307Q359 309 376 322T394 361Q394 382 377 394T328 406Z" />
<glyph unicode="f" glyph-name="f" horiz-adv-x="379" d="M43 0L110 382H16L38 509H133L136 527Q155 635 224 692T393 750Q469 750 515 712T559 595L426 579Q425 599 412 610T376 621Q304 621 289 539L284 509H420L398 382H264L196 0H43Z" />
<glyph unicode="g" glyph-name="g" horiz-adv-x="622" d="M180 -210Q121 -210 69 -199T-12 -168L41 -38Q109 -76 195 -76Q275 -76 318 -40T381 81L388 109Q323 10 216 10Q129 10 79 60T28 199Q28 267 51 325T118 426T218 493T344 517Q434 517 490 474L507 507H611Q604
471 594 424T575 325L536 99Q508 -59 420 -134T180 -210ZM268 143Q323 143 364 188T418 311L428 363Q399 386 347 386Q277 386 232 341T187 224Q187 143 268 143Z" />
<glyph unicode="h" glyph-name="h" horiz-adv-x="623" d="M14 0L144 740H297L256 509L227 390Q266 451 318 484T436 517Q525 517 564 457T578 288L544 140Q537 104 534 70T530 0H374Q374 66 389 132L424 285Q434 330 422 352T376 375Q333 375 295 341T224 225T167 0H14Z" />
<glyph unicode="i" glyph-name="i" horiz-adv-x="270" d="M21 0Q21 32 26 66T37 132L73 340Q83 397 88 435T97 509H251Q248 468 241 423T227 336L192 140Q186 104 181 70T176 0H21ZM457 569Q413 569 387 596T361 660Q361 697 386 724T457 751Q501 751 527 724T553
660Q553 623 527 596T457 569Z" />
<glyph unicode="j" glyph-name="j" horiz-adv-x="281" d="M82 340Q91 397 97 435T105 509H259Q256 468 249 423T235 336L180 30Q161 -77 98 -138T-91 -199Q-164 -199 -207 -182L-164 -57Q-120 -69 -79 -69Q-32 -69 -7 -46T27 29L82 340ZM465 569Q421 569 395 596T369
660Q369 697 394 724T465 751Q509 751 535 724T561 660Q561 623 535 596T465 569Z" />
<glyph unicode="k" glyph-name="k" horiz-adv-x="568" d="M14 0L144 740H297L221 310L442 509H632L356 261Q374 248 384 225L409 172Q423 143 441 130T488 117Q505 117 519 121T548 132L565 20Q538 3 506 -4T440 -10Q375 -9 338 15T273 99L247 152Q227 196 204
211L167 0H14Z" />
<glyph unicode="l" glyph-name="l" horiz-adv-x="309" d="M172 -10Q95 -10 62 36T41 156L144 740H297L196 167Q187 121 231 121Q254 121 272 132L290 23Q270 7 239 -1T172 -10Z" />
<glyph unicode="m" glyph-name="m" horiz-adv-x="968" d="M14 0L74 340Q84 397 89 435T99 509H250Q246 451 225 384Q264 449 316 483T433 517Q493 517 530 488T578 402Q618 458 670 487T785 517Q872 517 910 457T924 288L891 140Q883 104 880 70T876 0H720Q720
66 736 132L770 285Q781 330 769 352T726 375Q685 375 648 341T578 225T520 0H367L417 285Q433 375 373 375Q332 375 295 341T225 225T168 0H14Z" />
<glyph unicode="n" glyph-name="n" horiz-adv-x="623" d="M14 0L74 340Q83 397 89 435T98 509H249Q245 450 224 384Q263 448 316 482T436 517Q525 517 564 457T578 288L544 140Q537 104 534 70T530 0H374Q374 66 389 132L424 285Q434 330 422 352T376 375Q333
375 295 341T224 225T167 0H14Z" />
<glyph unicode="o" glyph-name="o" horiz-adv-x="596" d="M351 517Q450 517 509 464T568 315Q568 247 544 188T477 85T375 15T246 -10Q145 -10 86 43T27 191Q27 257 49 315T115 419T217 491T351 517ZM271 123Q309 123 340 146T391 208T410 295Q410 338 388 361T326
384Q283 384 252 359T203 295T186 212Q186 170 207 147T271 123Z" />
<glyph unicode="p" glyph-name="p" horiz-adv-x="618" d="M402 517Q490 517 540 465T591 320Q591 250 568 190T502 84T402 15T276 -10Q214 -10 168 11L167 -2L132 -200H-22L73 340Q83 397 88 435T98 509H249Q247 487 243 464T233 417Q298 517 402 517ZM350 384Q297
384 258 335T203 200L193 145Q221 121 272 121Q343 121 387 170T432 297Q432 384 350 384Z" />
<glyph unicode="q" glyph-name="q" horiz-adv-x="618" d="M607 508Q600 473 591 426T573 325L480 -200H327L362 -2L382 86Q318 -10 215 -10Q128 -10 78 42T27 186Q27 257 50 317T116 422T216 492T341 517Q430 517 485 473L502 508H607ZM267 123Q321 123 360 172T414
307L424 361Q396 386 345 386Q274 386 230 337T186 210Q186 123 267 123Z" />
<glyph unicode="r" glyph-name="r" horiz-adv-x="427" d="M427 361Q408 369 379 369Q325 369 287 333T220 215T168 0H15L75 340Q85 397 90 435T99 509H251Q249 484 243 451T227 383Q266 455 317 486T420 517Q437 517 451 515T480 508L427 361Z" />
<glyph unicode="s" glyph-name="s" horiz-adv-x="485" d="M212 -10Q108 -10 52 31T-9 141L124 173Q124 142 149 126T219 109Q258 109 279 119T300 148Q300 164 283 173T237 188T178 202T119 226T74 267T56 335Q56 394 89 434T175 496T291 517Q372 517 424 478T483
382L352 348Q346 398 278 398Q247 398 227 387T207 357Q207 340 224 331T269 315T328 300T386 277T431 237T449 170Q449 110 416 70T329 10T212 -10Z" />
<glyph unicode="t" glyph-name="t" horiz-adv-x="428" d="M250 -10Q186 -10 144 16T83 88T76 193L112 382H28L50 509H137L157 613H309L289 509H448L426 382H265L229 198Q214 122 292 122Q338 122 381 149L405 32Q379 11 339 1T250 -10Z" />
<glyph unicode="u" glyph-name="u" horiz-adv-x="610" d="M185 -10Q97 -10 60 49T44 217L66 340Q77 397 82 435T90 509H244Q241 468 234 423T219 336L199 229Q190 184 201 158T251 132Q286 132 321 166T388 283T448 509H597L538 174Q529 124 524 79T519 0H369Q369
28 373 59T385 119Q307 -10 185 -10Z" />
<glyph unicode="v" glyph-name="v" horiz-adv-x="545" d="M450 509H610L333 0H115L45 509H204L249 126L450 509Z" />
<glyph unicode="w" glyph-name="w" horiz-adv-x="883" d="M785 509H941L676 0H485L455 294L306 0H116L47 509H200L239 146L420 509H566L603 143L785 509Z" />
<glyph unicode="x" glyph-name="x" horiz-adv-x="516" d="M-66 0L170 267L34 509H207L274 385L381 509H571L346 255L489 0H316L242 138L124 0H-66Z" />
<glyph unicode="y" glyph-name="y" horiz-adv-x="614" d="M171 -210Q140 -210 106 -206T41 -192T-10 -168L39 -38Q71 -55 107 -65T193 -76Q276 -76 318 -38T380 81L388 115Q348 62 299 36T196 10Q106 10 67 70T48 238L67 342Q77 397 82 435T90 509H244Q241 467
234 423T220 338L203 249Q195 204 206 178T253 152Q294 152 330 185T397 295T453 509H601L529 99Q509 -16 462 -83T342 -180T171 -210Z" />
<glyph unicode="z" glyph-name="z" horiz-adv-x="462" d="M-20 0L0 116L268 382H55L77 509H489L470 399L199 127H421L399 0H-20Z" />
<glyph unicode="{" glyph-name="braceleft" horiz-adv-x="429" d="M274 -206Q174 -196 129 -154T83 -53Q83 -22 94 6T121 60T149 111T161 161Q161 190 140 205T62 221L79 321Q140 321 173 342T207 416Q207 446 199 479T190 550Q190 612 223 654T313 720T442 748L443
650Q400 648 374 626T347 561Q347 531 356 502T365 435Q365 365 319 326T202 271Q266 257 290 224T314 153Q314 119 303 93T277 43T251 -2T240 -50Q240 -77 257 -95T306 -119L274 -206Z" />
<glyph unicode="|" glyph-name="bar" horiz-adv-x="308" d="M-4 -200L162 740H317L151 -200H-4Z" />
<glyph unicode="}" glyph-name="braceright" horiz-adv-x="429" d="M-6 -206L-8 -108Q36 -105 62 -83T88 -19Q88 11 79 40T70 107Q70 177 116 216T234 271Q170 285 146 318T121 389Q121 423 132 449T158 499T184 544T196 592Q196 619 178 637T129 661L162 748Q262
738 307 696T353 595Q353 564 341 536T314 482T286 431T274 381Q274 352 295 337T373 321L356 221Q295 221 262 200T229 126Q229 96 237 63T245 -8Q245 -70 212 -112T122 -178T-6 -206Z" />
<glyph unicode="~" glyph-name="asciitilde" horiz-adv-x="600" d="M389 157Q365 157 338 165T283 185T232 205T191 214Q164 214 145 205T107 173L45 243Q74 298 118 325T211 353Q235 353 262 345T317 325T367 304T408 295Q436 295 455 305T493 337L555 267Q526
212 482 185T389 157Z" />
<glyph unicode="&#xa0;" glyph-name="uni00A0" horiz-adv-x="252" />
<glyph unicode="&#xa1;" glyph-name="exclamdown" horiz-adv-x="274" d="M165 334Q121 334 95 361T68 426Q68 466 94 492T165 519Q210 519 236 493T262 426Q262 388 236 361T165 334ZM-42 -200L84 269H190L133 -200H-42Z" />
<glyph unicode="&#xa2;" glyph-name="cent" horiz-adv-x="600" d="M218 -120L239 -5Q160 10 117 62T73 193Q73 274 106 341T197 453T330 511L350 629H456L436 514Q537 499 577 410L455 328Q446 357 426 369T373 383Q333 384 301 361T251 299T232 212Q232 123 326
124Q389 124 430 180L523 94Q461 7 344 -8L324 -120H218Z" />
<glyph unicode="&#xa3;" glyph-name="sterling" horiz-adv-x="600" d="M49 -12L2 92Q41 105 72 132T122 195T140 267Q140 275 139 284T137 303H17L36 409H120Q119 426 119 443Q119 530 156 592T260 687T411 720Q510 720 567 675T639 543L505 489Q497 538 470 559T398
581Q338 581 308 547T278 448Q278 437 278 428T281 409H429L410 303H295Q293 264 281 227T243 157Q253 160 270 160Q291 160 311 152T352 136T395 127Q443 127 479 169L556 99Q524 49 474 19T372 -11Q343 -11 309 -1T241 19T176 30Q112 30 49 -12Z" />
<glyph unicode="&#xa4;" glyph-name="currency" horiz-adv-x="600" d="M126 71L43 154L109 220Q93 248 84 280T75 347Q75 412 106 469L43 531L126 614L185 556Q214 576 248 587T320 598Q356 598 389 588T451 559L514 623L597 540L532 474Q548 446 556 414T565
347Q565 310 556 277T529 215L587 156L504 72L445 132Q418 115 387 106T320 97Q284 97 251 107T190 135L126 71ZM320 226Q352 226 378 242T419 286T434 347Q434 380 419 407T378 451T320 469Q288 470 263 453T222 408T206 347Q206 298 238 262T320 226Z" />
<glyph unicode="&#xa5;" glyph-name="yen" horiz-adv-x="600" d="M45 119L64 225H216L227 283H75L94 389H218L71 710H246L343 491L509 710H689L431 389H548L530 283H390L380 225H519L500 119H361L340 0H176L197 119H45Z" />
<glyph unicode="&#xa6;" glyph-name="brokenbar" horiz-adv-x="308" d="M98 380L162 740H316L252 380H98ZM-4 -200L60 160H214L150 -200H-4Z" />
<glyph unicode="&#xa7;" glyph-name="section" horiz-adv-x="525" d="M223 -10Q124 -10 78 29T26 125L153 160Q155 136 173 122T227 107Q266 107 282 120T298 151Q298 168 281 177T236 194T177 210T118 232T73 268T55 327Q55 374 79 405T143 455Q128 470 120 490T111
538Q111 597 142 637T225 699T337 720Q436 720 482 681T534 585L407 550Q405 574 387 588T333 603Q294 603 278 590T262 559Q262 542 279 533T324 516T383 500T442 478T487 442T505 383Q505 335 481 304T417 255Q432 240 440 220T449 172Q449 113 418 73T335 11T223
-10ZM208 363Q208 348 223 339T263 322T316 307Q352 317 352 347Q352 362 337 371T297 388T244 403Q208 393 208 363Z" />
<glyph unicode="&#xa8;" glyph-name="dieresis" horiz-adv-x="672" d="M466 568Q423 568 401 594T379 649Q379 680 401 705T466 730Q507 730 529 705T552 649Q552 620 530 594T466 568ZM255 568Q212 568 190 594T167 649Q167 680 189 705T255 730Q295 730 317
705T340 649Q340 620 318 594T255 568Z" />
<glyph unicode="&#xa9;" glyph-name="copyright" horiz-adv-x="831" d="M434 -14Q356 -14 288 13T170 90T91 206T62 349Q62 426 90 492T169 607T287 684T434 712Q511 712 578 685T696 608T774 492T803 349Q803 272 775 206T696 91T579 14T434 -14ZM434 44Q498
44 553 67T650 132T715 229T738 350Q738 415 715 470T650 566T553 631T434 654Q369 654 314 631T217 567T152 470T129 350Q129 285 152 230T216 133T313 68T434 44ZM615 233Q588 193 542 171T442 149Q339 149 282 200T224 342Q224 404 252 451T331 524T448 551Q508
551 547 531T616 467L520 405Q508 428 488 437T449 447Q406 447 380 419T353 345Q353 301 377 277T444 253Q463 253 485 264T522 301L615 233Z" />
<glyph unicode="&#xaa;" glyph-name="ordfeminine" horiz-adv-x="377" d="M377 462H259L267 491Q233 456 184 456Q139 456 108 484T77 566Q77 617 99 658T159 725T249 750Q308 750 330 715L343 744H427L377 462ZM256 655Q230 655 214 633T198 584Q198 551 230
551Q254 551 269 575T285 623Q285 655 256 655Z" />
<glyph unicode="&#xab;" glyph-name="guillemotleft" horiz-adv-x="564" d="M112 70L26 223L37 283L176 436H344L170 248L271 70H112ZM353 70L267 223L278 283L417 436H585L411 248L512 70H353Z" />
<glyph unicode="&#xac;" glyph-name="logicalnot" horiz-adv-x="600" d="M57 324H567L510 0H363L395 185H32L57 324Z" />
<glyph unicode="&#xad;" glyph-name="uni00AD" horiz-adv-x="436" d="M48 189L73 325H388L364 189H48Z" />
<glyph unicode="&#xae;" glyph-name="registered" horiz-adv-x="831" d="M434 -14Q355 -14 288 14T169 91T90 206T62 349Q62 426 90 492T168 607T287 684T434 712Q512 712 579 685T696 608T775 492T803 349Q803 272 775 207T697 92T579 14T434 -14ZM434 44Q498
44 553 67T650 132T715 229T738 350Q738 414 715 469T651 566T554 630T434 654Q369 654 314 631T217 567T152 470T129 350Q129 285 152 230T216 133T313 68T434 44ZM572 151Q527 151 502 164T463 199T442 241T424 276T395 293V158H271V549H415Q503 549 549 516T596
418Q596 381 575 353T518 311Q538 302 546 289T562 266T590 255Q614 255 630 267L659 176Q645 165 621 158T572 151ZM409 464H395V374H409Q444 374 457 386T470 419Q470 464 409 464Z" />
<glyph unicode="&#xaf;" glyph-name="overscore" horiz-adv-x="624" d="M173 698H517L499 596H155L173 698Z" />
<glyph unicode="&#xb0;" glyph-name="degree" horiz-adv-x="396" d="M251 397Q205 397 168 417T109 474T87 558Q87 604 108 640T167 696T251 717Q298 717 334 697T392 640T414 558Q414 511 393 475T335 418T251 397ZM251 487Q279 487 299 507T320 559Q320 590
300 609T251 629Q222 629 202 610T182 559Q182 527 202 507T251 487Z" />
<glyph unicode="&#xb1;" glyph-name="plusminus" horiz-adv-x="600" d="M278 509H412L393 400H525L503 277H371L352 168H217L237 277H104L126 400H259L278 509ZM0 0L22 123H532L510 0H0Z" />
<glyph unicode="&#xb2;" glyph-name="uni00B2" horiz-adv-x="330" d="M45 396Q75 413 108 436T170 486T217 540T236 590Q236 617 207 617Q188 617 174 604T148 566L69 611Q90 659 135 687T234 715Q288 715 322 688T357 611Q357 549 311 499T196 410H332L316 319H32L45
396Z" />
<glyph unicode="&#xb3;" glyph-name="uni00B3" horiz-adv-x="330" d="M182 313Q150 313 119 321T70 340L100 434Q144 411 186 411Q237 411 237 445Q237 457 227 465T193 474H165L168 553H184Q231 553 231 588Q231 617 200 617Q185 617 171 608T149 581L75 632Q93
667 131 691T223 715Q281 715 317 687T353 607Q353 576 337 552T297 518Q357 500 357 438Q357 399 333 371T270 328T182 313Z" />
<glyph unicode="&#xb4;" glyph-name="acute" horiz-adv-x="640" d="M274 573L428 750L581 712L412 573H274Z" />
<glyph unicode="&#xb5;" glyph-name="uni00B5" horiz-adv-x="610" d="M449 509H597L507 0H358L379 85Q344 34 304 12T222 -10Q175 -10 151 5L124 -200H-29L95 509H251L198 222Q191 181 203 157T248 132Q277 132 304 148T356 205T404 320T449 509Z" />
<glyph unicode="&#xb6;" glyph-name="paragraph" horiz-adv-x="784" d="M637 710H797L672 0H512L637 710ZM49 443Q49 531 94 590T215 680T388 710H567L442 0H283L327 248H307Q186 248 118 298T49 443Z" />
<glyph unicode="&#xb7;" glyph-name="middot" horiz-adv-x="285" d="M145 166Q97 166 69 195T41 267Q41 310 69 339T145 368Q193 368 221 339T250 267Q250 224 222 195T145 166Z" />
<glyph unicode="&#xb8;" glyph-name="cedilla" horiz-adv-x="618" d="M158 -223Q127 -223 91 -217T35 -200L75 -125Q92 -132 118 -137T167 -142Q209 -142 209 -118Q209 -111 202 -107T175 -103H110L191 18H288L257 -34Q332 -51 332 -112Q332 -161 287 -192T158 -223Z" />
<glyph unicode="&#xb9;" glyph-name="uni00B9" horiz-adv-x="330" d="M65 410H153L178 550L121 515L75 601L258 710H327L275 410H356L340 319H49L65 410Z" />
<glyph unicode="&#xba;" glyph-name="ordmasculine" horiz-adv-x="361" d="M219 456Q153 456 116 489T79 577Q79 624 102 663T167 726T267 750Q331 750 367 717T403 630Q403 580 380 541T315 479T219 456ZM229 547Q258 547 274 571T291 621Q291 639 281 649T254
660Q227 660 210 637T192 585Q192 547 229 547Z" />
<glyph unicode="&#xbb;" glyph-name="guillemotright" horiz-adv-x="564" d="M211 436L297 283L287 223L147 70H-21L153 258L52 436H211ZM452 436L538 283L528 223L388 70H220L394 258L293 436H452Z" />
<glyph unicode="&#xbc;" glyph-name="onequarter" horiz-adv-x="827" d="M65 410H153L178 550L121 515L75 601L258 710H327L275 410H356L340 319H49L65 410ZM175 0L524 710H652L302 0H175ZM788 77H745L731 0H625L639 77H479L491 150L716 392H801L758 153H800L788
77ZM587 153H652L668 242L587 153Z" />
<glyph unicode="&#xbd;" glyph-name="onehalf" horiz-adv-x="827" d="M65 410H153L178 550L121 515L75 601L258 710H327L275 410H356L340 319H49L65 410ZM175 0L524 710H652L302 0H175ZM486 77Q516 94 549 117T611 167T658 221T677 271Q677 298 648 298Q629 298
615 285T589 247L510 292Q531 340 576 368T675 396Q729 396 763 369T798 292Q798 230 752 180T637 91H773L757 0H473L486 77Z" />
<glyph unicode="&#xbe;" glyph-name="threequarters" horiz-adv-x="827" d="M182 313Q150 313 119 321T70 340L100 434Q144 411 186 411Q237 411 237 445Q237 457 227 465T193 474H165L168 553H184Q231 553 231 588Q231 617 200 617Q185 617 171 608T149 581L75
632Q93 667 131 691T223 715Q281 715 317 687T353 607Q353 576 337 552T297 518Q357 500 357 438Q357 399 333 371T270 328T182 313ZM175 0L524 710H652L302 0H175ZM788 77H745L731 0H625L639 77H479L491 150L716 392H801L758 153H800L788 77ZM587 153H652L668
242L587 153Z" />
<glyph unicode="&#xbf;" glyph-name="questiondown" horiz-adv-x="511" d="M301 336Q258 336 231 361T204 428Q204 469 230 495T300 521Q343 521 370 496T398 430Q398 389 372 363T301 336ZM183 -210Q98 -210 45 -169T-9 -54Q-9 10 27 55T119 142Q153 167 174
187T207 227T226 274L340 267Q335 193 308 144T226 56Q183 25 168 9T152 -26Q152 -71 219 -71Q264 -71 302 -45T364 29L472 -38Q447 -90 403 -128T303 -188T183 -210Z" />
<glyph unicode="&#xc0;" glyph-name="Agrave" horiz-adv-x="697" d="M-69 0L365 710H502L672 0H512L481 145H188L103 0H-69ZM268 281H451L402 510L268 281ZM372 774L253 912L420 951L510 774H372Z" />
<glyph unicode="&#xc1;" glyph-name="Aacute" horiz-adv-x="697" d="M-69 0L365 710H502L672 0H512L481 145H188L103 0H-69ZM268 281H451L402 510L268 281ZM372 774L526 951L679 912L510 774H372Z" />
<glyph unicode="&#xc2;" glyph-name="Acircumflex" horiz-adv-x="697" d="M-69 0L365 710H502L672 0H512L481 145H188L103 0H-69ZM268 281H451L402 510L268 281ZM637 774H500L459 847L392 774H244L408 941H534L637 774Z" />
<glyph unicode="&#xc3;" glyph-name="Atilde" horiz-adv-x="697" d="M-69 0L365 710H502L672 0H512L481 145H188L103 0H-69ZM268 281H451L402 510L268 281ZM521 768Q492 768 464 781T409 807T362 821Q348 821 329 810T294 776L242 826Q265 880 303 907T389 934Q417
934 446 921T501 894T547 881Q565 881 583 892T616 927L668 877Q645 823 606 796T521 768Z" />
<glyph unicode="&#xc4;" glyph-name="Adieresis" horiz-adv-x="697" d="M-69 0L365 710H502L672 0H512L481 145H188L103 0H-69ZM268 281H451L402 510L268 281ZM561 769Q518 769 496 795T474 850Q474 881 496 906T561 931Q602 931 624 906T647 850Q647 821 625
795T561 769ZM350 769Q307 769 285 795T262 850Q262 881 284 906T350 931Q390 931 412 906T435 850Q435 821 413 795T350 769Z" />
<glyph unicode="&#xc5;" glyph-name="Aring" horiz-adv-x="697" d="M-69 0L365 710H502L672 0H512L481 145H188L103 0H-69ZM268 281H451L402 510L268 281ZM460 769Q426 769 399 784T355 824T338 881Q338 913 355 939T400 981T463 996Q514 996 548 965T583 885Q583
836 548 803T460 769ZM461 828Q485 828 500 844T515 885Q515 908 500 922T462 937Q438 937 422 921T406 881Q406 857 421 843T461 828Z" />
<glyph unicode="&#xc6;" glyph-name="AE" horiz-adv-x="948" d="M-69 0L365 710H1002L977 569H663L638 428H932L907 287H613L587 141H912L876 0H400L425 143H186L103 0H-69ZM269 284H450L500 569H436L269 284Z" />
<glyph unicode="&#xc7;" glyph-name="Ccedilla" horiz-adv-x="680" d="M674 139Q622 64 538 27T359 -10Q264 -10 194 24T85 121T46 272Q46 367 79 449T172 591T310 686T483 720Q578 720 645 684T744 575L605 486Q588 532 549 553T461 575Q391 575 335 538T246
436T213 292Q213 218 256 177T377 135Q427 135 478 158T568 234L674 139ZM294 -223Q263 -223 227 -217T171 -200L211 -125Q228 -132 254 -137T303 -142Q345 -142 345 -118Q345 -111 338 -107T311 -103H246L327 18H424L393 -34Q468 -51 468 -112Q468 -161 423 -192T294
-223Z" />
<glyph unicode="&#xc8;" glyph-name="Egrave" horiz-adv-x="579" d="M208 141H543L508 0H22L147 710H634L609 569H283L258 428H564L539 287H233L208 141ZM333 774L214 912L381 951L471 774H333Z" />
<glyph unicode="&#xc9;" glyph-name="Eacute" horiz-adv-x="579" d="M208 141H543L508 0H22L147 710H634L609 569H283L258 428H564L539 287H233L208 141ZM333 774L487 951L640 912L471 774H333Z" />
<glyph unicode="&#xca;" glyph-name="Ecircumflex" horiz-adv-x="579" d="M208 141H543L508 0H22L147 710H634L609 569H283L258 428H564L539 287H233L208 141ZM598 774H461L420 847L353 774H205L369 941H495L598 774Z" />
<glyph unicode="&#xcb;" glyph-name="Edieresis" horiz-adv-x="579" d="M208 141H543L508 0H22L147 710H634L609 569H283L258 428H564L539 287H233L208 141ZM522 769Q479 769 457 795T435 850Q435 881 457 906T522 931Q563 931 585 906T608 850Q608 821 586 795T522
769ZM311 769Q268 769 246 795T223 850Q223 881 245 906T311 931Q351 931 373 906T396 850Q396 821 374 795T311 769Z" />
<glyph unicode="&#xcc;" glyph-name="Igrave" horiz-adv-x="297" d="M22 0L147 710H310L185 0H22ZM426 774L307 912L474 951L564 774H426Z" />
<glyph unicode="&#xcd;" glyph-name="Iacute" horiz-adv-x="297" d="M22 0L147 710H310L185 0H22ZM426 774L580 951L733 912L564 774H426Z" />
<glyph unicode="&#xce;" glyph-name="Icircumflex" horiz-adv-x="297" d="M22 0L147 710H310L185 0H22ZM692 774H555L514 847L447 774H299L463 941H589L692 774Z" />
<glyph unicode="&#xcf;" glyph-name="Idieresis" horiz-adv-x="297" d="M22 0L147 710H310L185 0H22ZM616 769Q573 769 551 795T529 850Q529 881 551 906T616 931Q657 931 679 906T702 850Q702 821 680 795T616 769ZM405 769Q362 769 340 795T317 850Q317 881
339 906T405 931Q445 931 467 906T490 850Q490 821 468 795T405 769Z" />
<glyph unicode="&#xd0;" glyph-name="Eth" horiz-adv-x="757" d="M22 0L147 710H370Q552 710 648 634T744 418Q744 325 712 249T621 117T482 31T305 0H22ZM212 145H320Q444 145 511 213T578 400Q578 482 527 523T367 565H285L212 145ZM279 559L299 673H685L665 559H279Z" />
<glyph unicode="&#xd1;" glyph-name="Ntilde" horiz-adv-x="751" d="M607 710H764L639 0H494L258 452L179 0H22L147 710H292L528 258L607 710ZM547 770Q518 770 490 783T435 809T388 823Q374 823 355 812T320 778L268 828Q291 882 329 909T415 936Q443 936 472
923T527 896T573 883Q591 883 609 894T642 929L694 879Q671 825 632 798T547 770Z" />
<glyph unicode="&#xd2;" glyph-name="Ograve" horiz-adv-x="781" d="M353 -10Q260 -10 191 24T84 121T46 272Q46 367 79 449T170 591T307 686T479 720Q567 720 632 685T734 586T770 435Q770 342 738 261T649 119T516 24T353 -10ZM371 135Q437 135 489 172T572
274T603 418Q603 491 564 533T455 575Q386 575 332 538T245 436T213 292Q213 218 254 177T371 135ZM413 774L294 912L461 951L551 774H413Z" />
<glyph unicode="&#xd3;" glyph-name="Oacute" horiz-adv-x="781" d="M353 -10Q260 -10 191 24T84 121T46 272Q46 367 79 449T170 591T307 686T479 720Q567 720 632 685T734 586T770 435Q770 342 738 261T649 119T516 24T353 -10ZM371 135Q437 135 489 172T572
274T603 418Q603 491 564 533T455 575Q386 575 332 538T245 436T213 292Q213 218 254 177T371 135ZM413 774L567 951L720 912L551 774H413Z" />
<glyph unicode="&#xd4;" glyph-name="Ocircumflex" horiz-adv-x="781" d="M353 -10Q260 -10 191 24T84 121T46 272Q46 367 79 449T170 591T307 686T479 720Q567 720 632 685T734 586T770 435Q770 342 738 261T649 119T516 24T353 -10ZM371 135Q437 135 489 172T572
274T603 418Q603 491 564 533T455 575Q386 575 332 538T245 436T213 292Q213 218 254 177T371 135ZM679 774H542L501 847L434 774H286L450 941H576L679 774Z" />
<glyph unicode="&#xd5;" glyph-name="Otilde" horiz-adv-x="781" d="M353 -10Q260 -10 191 24T84 121T46 272Q46 367 79 449T170 591T307 686T479 720Q567 720 632 685T734 586T770 435Q770 342 738 261T649 119T516 24T353 -10ZM371 135Q437 135 489 172T572
274T603 418Q603 491 564 533T455 575Q386 575 332 538T245 436T213 292Q213 218 254 177T371 135ZM563 768Q534 768 506 781T451 807T404 821Q390 821 371 810T336 776L284 826Q307 880 345 907T431 934Q459 934 488 921T543 894T589 881Q607 881 625 892T658
927L710 877Q687 823 648 796T563 768Z" />
<glyph unicode="&#xd6;" glyph-name="Odieresis" horiz-adv-x="781" d="M353 -10Q260 -10 191 24T84 121T46 272Q46 367 79 449T170 591T307 686T479 720Q567 720 632 685T734 586T770 435Q770 342 738 261T649 119T516 24T353 -10ZM371 135Q437 135 489 172T572
274T603 418Q603 491 564 533T455 575Q386 575 332 538T245 436T213 292Q213 218 254 177T371 135ZM603 769Q560 769 538 795T516 850Q516 881 538 906T603 931Q644 931 666 906T689 850Q689 821 667 795T603 769ZM392 769Q349 769 327 795T304 850Q304 881 326
906T392 931Q432 931 454 906T477 850Q477 821 455 795T392 769Z" />
<glyph unicode="&#xd7;" glyph-name="multiply" horiz-adv-x="600" d="M169 25L70 123L202 255L70 386L169 484L300 353L431 484L530 386L398 255L530 123L431 25L300 156L169 25Z" />
<glyph unicode="&#xd8;" glyph-name="Oslash" horiz-adv-x="781" d="M353 -10Q260 -10 191 24T84 121T46 272Q46 367 79 449T170 591T307 686T479 720Q567 720 632 685T734 586T770 435Q770 342 738 261T649 119T516 24T353 -10ZM371 135Q437 135 489 172T572
274T603 418Q603 491 564 533T455 575Q386 575 332 538T245 436T213 292Q213 218 254 177T371 135ZM133 -16L44 66L685 726L774 644L133 -16Z" />
<glyph unicode="&#xd9;" glyph-name="Ugrave" horiz-adv-x="759" d="M613 710H774L708 324Q680 161 588 76T348 -10Q246 -10 179 27T83 135T72 301L144 710H308L238 314Q207 135 365 135Q442 135 486 183T549 335L613 710ZM402 774L283 912L450 951L540 774H402Z" />
<glyph unicode="&#xda;" glyph-name="Uacute" horiz-adv-x="759" d="M613 710H774L708 324Q680 161 588 76T348 -10Q246 -10 179 27T83 135T72 301L144 710H308L238 314Q207 135 365 135Q442 135 486 183T549 335L613 710ZM402 774L556 951L709 912L540 774H402Z" />
<glyph unicode="&#xdb;" glyph-name="Ucircumflex" horiz-adv-x="759" d="M613 710H774L708 324Q680 161 588 76T348 -10Q246 -10 179 27T83 135T72 301L144 710H308L238 314Q207 135 365 135Q442 135 486 183T549 335L613 710ZM667 774H530L489 847L422 774H274L438
941H564L667 774Z" />
<glyph unicode="&#xdc;" glyph-name="Udieresis" horiz-adv-x="759" d="M613 710H774L708 324Q680 161 588 76T348 -10Q246 -10 179 27T83 135T72 301L144 710H308L238 314Q207 135 365 135Q442 135 486 183T549 335L613 710ZM591 769Q548 769 526 795T504 850Q504
881 526 906T591 931Q632 931 654 906T677 850Q677 821 655 795T591 769ZM380 769Q337 769 315 795T292 850Q292 881 314 906T380 931Q420 931 442 906T465 850Q465 821 443 795T380 769Z" />
<glyph unicode="&#xdd;" glyph-name="Yacute" horiz-adv-x="611" d="M713 710L399 317L343 0H179L235 315L53 710H228L339 461L532 710H713ZM331 774L485 951L638 912L469 774H331Z" />
<glyph unicode="&#xde;" glyph-name="Thorn" horiz-adv-x="641" d="M22 0L148 710H308L290 611H385Q511 611 583 563T656 417Q656 325 611 266T487 178T305 149H208L181 0H22ZM362 478H267L232 283H333Q416 283 454 311T493 398Q493 441 459 459T362 478Z" />
<glyph unicode="&#xdf;" glyph-name="germandbls" horiz-adv-x="712" d="M16 382L38 509H134Q163 621 249 685T461 750Q552 750 606 712T661 611Q661 568 643 537T598 484T545 443T500 409T482 374Q482 358 497 349T538 331T590 312T643 286T683 245T699 180Q699
120 669 78T586 13T468 -10Q376 -10 324 27T264 132L406 165Q412 106 483 106Q514 106 531 117T548 146Q548 164 533 175T492 194T440 212T388 236T348 274T332 332Q332 377 351 408T398 461T455 503T502 542T522 588Q522 633 449 633Q307 633 280 478L196 0H43L110
382H16Z" />
<glyph unicode="&#xe0;" glyph-name="agrave" horiz-adv-x="618" d="M215 -10Q128 -10 78 42T27 186Q27 257 50 317T116 422T216 492T341 517Q431 517 486 472L504 507H608Q601 473 592 426T572 325L545 174Q536 124 532 79T527 0H376Q376 22 379 46T387 93Q322
-10 215 -10ZM267 123Q321 123 360 172T414 307L424 361Q396 386 345 386Q274 386 230 337T186 210Q186 123 267 123ZM307 573L188 712L355 750L445 573H307Z" />
<glyph unicode="&#xe1;" glyph-name="aacute" horiz-adv-x="618" d="M215 -10Q128 -10 78 42T27 186Q27 257 50 317T116 422T216 492T341 517Q431 517 486 472L504 507H608Q601 473 592 426T572 325L545 174Q536 124 532 79T527 0H376Q376 22 379 46T387 93Q322
-10 215 -10ZM267 123Q321 123 360 172T414 307L424 361Q396 386 345 386Q274 386 230 337T186 210Q186 123 267 123ZM307 573L461 750L614 712L445 573H307Z" />
<glyph unicode="&#xe2;" glyph-name="acircumflex" horiz-adv-x="618" d="M215 -10Q128 -10 78 42T27 186Q27 257 50 317T116 422T216 492T341 517Q431 517 486 472L504 507H608Q601 473 592 426T572 325L545 174Q536 124 532 79T527 0H376Q376 22 379 46T387
93Q322 -10 215 -10ZM267 123Q321 123 360 172T414 307L424 361Q396 386 345 386Q274 386 230 337T186 210Q186 123 267 123ZM572 573H435L394 646L327 573H179L343 740H469L572 573Z" />
<glyph unicode="&#xe3;" glyph-name="atilde" horiz-adv-x="618" d="M215 -10Q128 -10 78 42T27 186Q27 257 50 317T116 422T216 492T341 517Q431 517 486 472L504 507H608Q601 473 592 426T572 325L545 174Q536 124 532 79T527 0H376Q376 22 379 46T387 93Q322
-10 215 -10ZM267 123Q321 123 360 172T414 307L424 361Q396 386 345 386Q274 386 230 337T186 210Q186 123 267 123ZM456 567Q427 567 399 580T344 606T297 620Q283 620 264 609T229 575L177 625Q200 679 238 706T324 733Q352 733 381 720T436 693T482 680Q500
680 518 691T551 726L603 676Q580 622 541 595T456 567Z" />
<glyph unicode="&#xe4;" glyph-name="adieresis" horiz-adv-x="618" d="M215 -10Q128 -10 78 42T27 186Q27 257 50 317T116 422T216 492T341 517Q431 517 486 472L504 507H608Q601 473 592 426T572 325L545 174Q536 124 532 79T527 0H376Q376 22 379 46T387 93Q322
-10 215 -10ZM267 123Q321 123 360 172T414 307L424 361Q396 386 345 386Q274 386 230 337T186 210Q186 123 267 123ZM496 568Q453 568 431 594T409 649Q409 680 431 705T496 730Q537 730 559 705T582 649Q582 620 560 594T496 568ZM285 568Q242 568 220 594T197
649Q197 680 219 705T285 730Q325 730 347 705T370 649Q370 620 348 594T285 568Z" />
<glyph unicode="&#xe5;" glyph-name="aring" horiz-adv-x="618" d="M215 -10Q128 -10 78 42T27 186Q27 257 50 317T116 422T216 492T341 517Q431 517 486 472L504 507H608Q601 473 592 426T572 325L545 174Q536 124 532 79T527 0H376Q376 22 379 46T387 93Q322
-10 215 -10ZM267 123Q321 123 360 172T414 307L424 361Q396 386 345 386Q274 386 230 337T186 210Q186 123 267 123ZM395 568Q361 568 334 583T290 623T273 680Q273 712 290 738T335 780T398 795Q449 795 483 764T518 684Q518 635 483 602T395 568ZM396 627Q420
627 435 643T450 684Q450 707 435 721T397 736Q373 736 357 721T341 680Q341 656 356 642T396 627Z" />
<glyph unicode="&#xe6;" glyph-name="ae" horiz-adv-x="849" d="M206 -10Q113 -10 62 28T11 135Q11 217 74 264T243 311H348L350 320Q357 357 339 376T284 395Q215 395 180 335L54 361Q86 434 153 475T306 517Q357 517 401 501T467 444Q501 479 548 498T653 517Q705
517 745 499T808 446T832 366Q832 296 783 253T654 210H487Q485 169 515 145T599 121Q630 121 663 133T717 167L782 74Q748 34 694 12T575 -10Q456 -10 397 77Q363 33 312 12T206 -10ZM632 406Q588 406 555 381T506 311H642Q664 311 679 323T695 358Q695 377 681
391T632 406ZM228 105Q312 105 327 192L330 210H240Q204 210 183 195T162 154Q162 105 228 105Z" />
<glyph unicode="&#xe7;" glyph-name="ccedilla" horiz-adv-x="497" d="M255 -10Q148 -10 88 44T27 193Q27 262 51 321T118 424T219 492T345 517Q413 517 460 491T532 410L409 328Q400 357 380 370T328 383Q288 383 256 361T206 299T187 212Q187 123 280 124Q343
124 385 180L477 94Q403 -10 255 -10ZM183 -223Q152 -223 116 -217T60 -200L100 -125Q117 -132 143 -137T192 -142Q234 -142 234 -118Q234 -111 227 -107T200 -103H135L216 18H313L282 -34Q357 -51 357 -112Q357 -161 312 -192T183 -223Z" />
<glyph unicode="&#xe8;" glyph-name="egrave" horiz-adv-x="547" d="M266 -10Q194 -10 141 16T58 90T29 203Q29 293 69 364T179 476T338 517Q425 517 477 476T530 366Q530 296 481 254T348 206L181 194Q186 160 216 141T295 121Q328 121 361 133T415 167L481 74Q446
34 392 12T266 -10ZM328 406Q279 406 244 377T195 298L328 307Q359 309 376 322T394 361Q394 382 377 394T328 406ZM276 573L157 712L324 750L414 573H276Z" />
<glyph unicode="&#xe9;" glyph-name="eacute" horiz-adv-x="547" d="M266 -10Q194 -10 141 16T58 90T29 203Q29 293 69 364T179 476T338 517Q425 517 477 476T530 366Q530 296 481 254T348 206L181 194Q186 160 216 141T295 121Q328 121 361 133T415 167L481 74Q446
34 392 12T266 -10ZM328 406Q279 406 244 377T195 298L328 307Q359 309 376 322T394 361Q394 382 377 394T328 406ZM276 573L430 750L583 712L414 573H276Z" />
<glyph unicode="&#xea;" glyph-name="ecircumflex" horiz-adv-x="547" d="M266 -10Q194 -10 141 16T58 90T29 203Q29 293 69 364T179 476T338 517Q425 517 477 476T530 366Q530 296 481 254T348 206L181 194Q186 160 216 141T295 121Q328 121 361 133T415 167L481
74Q446 34 392 12T266 -10ZM328 406Q279 406 244 377T195 298L328 307Q359 309 376 322T394 361Q394 382 377 394T328 406ZM542 573H405L364 646L297 573H149L313 740H439L542 573Z" />
<glyph unicode="&#xeb;" glyph-name="edieresis" horiz-adv-x="547" d="M266 -10Q194 -10 141 16T58 90T29 203Q29 293 69 364T179 476T338 517Q425 517 477 476T530 366Q530 296 481 254T348 206L181 194Q186 160 216 141T295 121Q328 121 361 133T415 167L481
74Q446 34 392 12T266 -10ZM328 406Q279 406 244 377T195 298L328 307Q359 309 376 322T394 361Q394 382 377 394T328 406ZM466 568Q423 568 401 594T379 649Q379 680 401 705T466 730Q507 730 529 705T552 649Q552 620 530 594T466 568ZM255 568Q212 568 190 594T167
649Q167 680 189 705T255 730Q295 730 317 705T340 649Q340 620 318 594T255 568Z" />
<glyph unicode="&#xec;" glyph-name="igrave" horiz-adv-x="270" d="M21 0Q21 32 26 66T37 132L73 340Q83 397 88 435T97 509H251Q248 468 241 423T227 336L192 140Q186 104 181 70T176 0H21ZM116 573L-3 712L164 750L254 573H116Z" />
<glyph unicode="&#xed;" glyph-name="iacute" horiz-adv-x="270" d="M21 0Q21 32 26 66T37 132L73 340Q83 397 88 435T97 509H251Q248 468 241 423T227 336L192 140Q186 104 181 70T176 0H21ZM116 573L270 750L423 712L254 573H116Z" />
<glyph unicode="&#xee;" glyph-name="icircumflex" horiz-adv-x="270" d="M21 0Q21 32 26 66T37 132L73 340Q83 397 88 435T97 509H251Q248 468 241 423T227 336L192 140Q186 104 181 70T176 0H21ZM381 573H244L203 646L136 573H-12L152 740H278L381 573Z" />
<glyph unicode="&#xef;" glyph-name="idieresis" horiz-adv-x="270" d="M21 0Q21 32 26 66T37 132L73 340Q83 397 88 435T97 509H251Q248 468 241 423T227 336L192 140Q186 104 181 70T176 0H21ZM305 568Q262 568 240 594T218 649Q218 680 240 705T305 730Q346
730 368 705T391 649Q391 620 369 594T305 568ZM94 568Q51 568 29 594T6 649Q6 680 28 705T94 730Q134 730 156 705T179 649Q179 620 157 594T94 568Z" />
<glyph unicode="&#xf0;" glyph-name="eth" horiz-adv-x="610" d="M256 -10Q189 -10 138 15T57 86T28 195Q28 253 50 303T112 390T204 449T317 470Q406 470 445 419Q436 482 397 532L208 492L189 578L310 604Q268 629 214 644L284 756Q412 719 491 643L616 670L633
583L551 565Q597 485 597 383Q597 301 574 230T505 104T398 20T256 -10ZM284 123Q321 123 351 141T398 189T416 256Q416 295 393 319T324 343Q260 343 224 305T187 213Q187 173 212 148T284 123Z" />
<glyph unicode="&#xf1;" glyph-name="ntilde" horiz-adv-x="623" d="M14 0L74 340Q83 397 89 435T98 509H249Q245 450 224 384Q263 448 316 482T436 517Q525 517 564 457T578 288L544 140Q537 104 534 70T530 0H374Q374 66 389 132L424 285Q434 330 422 352T376
375Q333 375 295 341T224 225T167 0H14ZM450 567Q421 567 393 580T338 606T291 620Q277 620 258 609T223 575L171 625Q194 679 232 706T318 733Q346 733 375 720T430 693T476 680Q494 680 512 691T545 726L597 676Q574 622 535 595T450 567Z" />
<glyph unicode="&#xf2;" glyph-name="ograve" horiz-adv-x="596" d="M351 517Q450 517 509 464T568 315Q568 247 544 188T477 85T375 15T246 -10Q145 -10 86 43T27 191Q27 257 49 315T115 419T217 491T351 517ZM271 123Q309 123 340 146T391 208T410 295Q410 338
388 361T326 384Q283 384 252 359T203 295T186 212Q186 170 207 147T271 123ZM285 573L166 712L333 750L423 573H285Z" />
<glyph unicode="&#xf3;" glyph-name="oacute" horiz-adv-x="596" d="M351 517Q450 517 509 464T568 315Q568 247 544 188T477 85T375 15T246 -10Q145 -10 86 43T27 191Q27 257 49 315T115 419T217 491T351 517ZM271 123Q309 123 340 146T391 208T410 295Q410 338
388 361T326 384Q283 384 252 359T203 295T186 212Q186 170 207 147T271 123ZM285 573L439 750L592 712L423 573H285Z" />
<glyph unicode="&#xf4;" glyph-name="ocircumflex" horiz-adv-x="596" d="M351 517Q450 517 509 464T568 315Q568 247 544 188T477 85T375 15T246 -10Q145 -10 86 43T27 191Q27 257 49 315T115 419T217 491T351 517ZM271 123Q309 123 340 146T391 208T410 295Q410
338 388 361T326 384Q283 384 252 359T203 295T186 212Q186 170 207 147T271 123ZM550 573H413L372 646L305 573H157L321 740H447L550 573Z" />
<glyph unicode="&#xf5;" glyph-name="otilde" horiz-adv-x="596" d="M351 517Q450 517 509 464T568 315Q568 247 544 188T477 85T375 15T246 -10Q145 -10 86 43T27 191Q27 257 49 315T115 419T217 491T351 517ZM271 123Q309 123 340 146T391 208T410 295Q410 338
388 361T326 384Q283 384 252 359T203 295T186 212Q186 170 207 147T271 123ZM434 567Q405 567 377 580T322 606T275 620Q261 620 242 609T207 575L155 625Q178 679 216 706T302 733Q330 733 359 720T414 693T460 680Q478 680 496 691T529 726L581 676Q558 622
519 595T434 567Z" />
<glyph unicode="&#xf6;" glyph-name="odieresis" horiz-adv-x="596" d="M351 517Q450 517 509 464T568 315Q568 247 544 188T477 85T375 15T246 -10Q145 -10 86 43T27 191Q27 257 49 315T115 419T217 491T351 517ZM271 123Q309 123 340 146T391 208T410 295Q410
338 388 361T326 384Q283 384 252 359T203 295T186 212Q186 170 207 147T271 123ZM474 568Q431 568 409 594T387 649Q387 680 409 705T474 730Q515 730 537 705T560 649Q560 620 538 594T474 568ZM263 568Q220 568 198 594T175 649Q175 680 197 705T263 730Q303
730 325 705T348 649Q348 620 326 594T263 568Z" />
<glyph unicode="&#xf7;" glyph-name="divide" horiz-adv-x="600" d="M333 364Q299 364 275 386T251 441Q251 475 275 497T333 519Q366 519 390 497T414 441Q414 408 390 386T333 364ZM564 316L543 193H36L57 316H564ZM267 -10Q234 -10 210 12T186 68Q186 101 210
123T267 145Q301 145 325 123T349 68Q349 34 325 12T267 -10Z" />
<glyph unicode="&#xf8;" glyph-name="oslash" horiz-adv-x="596" d="M351 517Q450 517 509 464T568 315Q568 247 544 188T477 85T375 15T246 -10Q145 -10 86 43T27 191Q27 257 49 315T115 419T217 491T351 517ZM271 123Q309 123 340 146T391 208T410 295Q410 338
388 361T326 384Q283 384 252 359T203 295T186 212Q186 170 207 147T271 123ZM367 -15L288 59L345 118L425 187L632 399L683 465L740 524L820 450L763 391L682 322L475 110L424 44L367 -15Z" />
<glyph unicode="&#xf9;" glyph-name="ugrave" horiz-adv-x="610" d="M185 -10Q97 -10 60 49T44 217L66 340Q77 397 82 435T90 509H244Q241 468 234 423T219 336L199 229Q190 184 201 158T251 132Q286 132 321 166T388 283T448 509H597L538 174Q529 124 524 79T519
0H369Q369 28 373 59T385 119Q307 -10 185 -10ZM292 573L173 712L340 750L430 573H292Z" />
<glyph unicode="&#xfa;" glyph-name="uacute" horiz-adv-x="610" d="M185 -10Q97 -10 60 49T44 217L66 340Q77 397 82 435T90 509H244Q241 468 234 423T219 336L199 229Q190 184 201 158T251 132Q286 132 321 166T388 283T448 509H597L538 174Q529 124 524 79T519
0H369Q369 28 373 59T385 119Q307 -10 185 -10ZM292 573L446 750L599 712L430 573H292Z" />
<glyph unicode="&#xfb;" glyph-name="ucircumflex" horiz-adv-x="610" d="M185 -10Q97 -10 60 49T44 217L66 340Q77 397 82 435T90 509H244Q241 468 234 423T219 336L199 229Q190 184 201 158T251 132Q286 132 321 166T388 283T448 509H597L538 174Q529 124 524
79T519 0H369Q369 28 373 59T385 119Q307 -10 185 -10ZM557 573H420L379 646L312 573H164L328 740H454L557 573Z" />
<glyph unicode="&#xfc;" glyph-name="udieresis" horiz-adv-x="610" d="M185 -10Q97 -10 60 49T44 217L66 340Q77 397 82 435T90 509H244Q241 468 234 423T219 336L199 229Q190 184 201 158T251 132Q286 132 321 166T388 283T448 509H597L538 174Q529 124 524
79T519 0H369Q369 28 373 59T385 119Q307 -10 185 -10ZM481 568Q438 568 416 594T394 649Q394 680 416 705T481 730Q522 730 544 705T567 649Q567 620 545 594T481 568ZM270 568Q227 568 205 594T182 649Q182 680 204 705T270 730Q310 730 332 705T355 649Q355
620 333 594T270 568Z" />
<glyph unicode="&#xfd;" glyph-name="yacute" horiz-adv-x="614" d="M171 -210Q140 -210 106 -206T41 -192T-10 -168L39 -38Q71 -55 107 -65T193 -76Q276 -76 318 -38T380 81L388 115Q348 62 299 36T196 10Q106 10 67 70T48 238L67 342Q77 397 82 435T90 509H244Q241
467 234 423T220 338L203 249Q195 204 206 178T253 152Q294 152 330 185T397 295T453 509H601L529 99Q509 -16 462 -83T342 -180T171 -210ZM294 573L448 750L601 712L432 573H294Z" />
<glyph unicode="&#xfe;" glyph-name="thorn" horiz-adv-x="618" d="M132 -200H-21L145 740H298L258 509L237 421Q301 517 404 517Q492 517 542 465T593 320Q593 250 570 190T503 84T403 15T278 -10Q215 -10 169 12L167 0L132 -200ZM352 384Q299 384 260 335T205
200L195 145Q223 121 274 121Q345 121 389 170T434 297Q434 384 352 384Z" />
<glyph unicode="&#xff;" glyph-name="ydieresis" horiz-adv-x="614" d="M171 -210Q140 -210 106 -206T41 -192T-10 -168L39 -38Q71 -55 107 -65T193 -76Q276 -76 318 -38T380 81L388 115Q348 62 299 36T196 10Q106 10 67 70T48 238L67 342Q77 397 82 435T90 509H244Q241
467 234 423T220 338L203 249Q195 204 206 178T253 152Q294 152 330 185T397 295T453 509H601L529 99Q509 -16 462 -83T342 -180T171 -210ZM483 568Q440 568 418 594T396 649Q396 680 418 705T483 730Q524 730 546 705T569 649Q569 620 547 594T483 568ZM272 568Q229
568 207 594T184 649Q184 680 206 705T272 730Q312 730 334 705T357 649Q357 620 335 594T272 568Z" />
<glyph unicode="&#x2013;" glyph-name="endash" horiz-adv-x="500" d="M9 196L32 323H492L469 196H9Z" />
<glyph unicode="&#x2014;" glyph-name="emdash" horiz-adv-x="1000" d="M9 196L32 323H992L969 196H9Z" />
<glyph unicode="&#x2018;" glyph-name="quoteleft" horiz-adv-x="285" d="M333 750Q271 650 271 589Q271 562 277 542T284 496Q284 440 251 412T170 383Q128 383 104 405T80 475Q80 505 96 542T138 617T195 690T256 750H333Z" />
<glyph unicode="&#x2019;" glyph-name="quoteright" horiz-adv-x="285" d="M61 383Q123 484 123 545Q123 571 117 591T110 638Q110 693 144 721T224 750Q267 750 290 728T314 658Q314 628 298 591T256 516T199 443T139 383H61Z" />
<glyph unicode="&#x201a;" glyph-name="quotesinglbase" horiz-adv-x="275" d="M-41 -176Q20 -75 20 -14Q20 12 14 32T8 79Q8 134 41 162T122 191Q164 191 188 169T212 99Q212 69 196 32T153 -43T96 -116T36 -176H-41Z" />
<glyph unicode="&#x201c;" glyph-name="quotedblleft" horiz-adv-x="524" d="M572 750Q510 650 510 589Q510 562 516 542T523 496Q523 440 490 412T409 383Q367 383 343 405T319 475Q319 505 335 542T377 617T434 690T495 750H572ZM333 750Q271 650 271 589Q271
562 277 542T284 496Q284 440 251 412T170 383Q128 383 104 405T80 475Q80 505 96 542T138 617T195 690T256 750H333Z" />
<glyph unicode="&#x201d;" glyph-name="quotedblright" horiz-adv-x="524" d="M300 383Q362 484 362 545Q362 571 356 591T349 638Q349 693 383 721T463 750Q506 750 529 728T553 658Q553 628 537 591T495 516T438 443T378 383H300ZM61 383Q123 484 123 545Q123
571 117 591T110 638Q110 693 144 721T224 750Q267 750 290 728T314 658Q314 628 298 591T256 516T199 443T139 383H61Z" />
<glyph unicode="&#x201e;" glyph-name="quotedblbase" horiz-adv-x="524" d="M204 -176Q265 -75 265 -14Q265 12 259 32T253 79Q253 134 286 162T367 191Q409 191 433 169T457 99Q457 69 441 32T398 -43T341 -116T281 -176H204ZM-36 -176Q25 -75 25 -14Q25 12
19 32T13 79Q13 134 46 162T127 191Q169 191 193 169T217 99Q217 69 201 32T158 -43T101 -116T41 -176H-36Z" />
<glyph unicode="&#x2022;" glyph-name="bullet" horiz-adv-x="440" d="M222 97Q174 97 136 119T75 180T52 268Q52 317 74 355T135 416T222 439Q270 439 308 417T370 356T393 268Q393 219 370 181T309 120T222 97Z" />
<glyph unicode="&#x2039;" glyph-name="guilsinglleft" horiz-adv-x="323" d="M112 70L26 223L37 283L176 436H344L170 248L271 70H112Z" />
<glyph unicode="&#x203a;" glyph-name="guilsinglright" horiz-adv-x="323" d="M211 436L297 283L287 223L147 70H-21L153 258L52 436H211Z" />
</font>
</defs>
</svg>
